<svg xmlns="http://www.w3.org/2000/svg" viewBox="0 0 32 32">
  <defs>
    <linearGradient id="grad1" x1="0%" y1="0%" x2="100%" y2="100%">
      <stop offset="0%" style="stop-color:#4F46E5;stop-opacity:1" />
      <stop offset="100%" style="stop-color:#7C3AED;stop-opacity:1" />
    </linearGradient>
  </defs>

  <!-- Outer loop of Möbius strip -->
  <path d="M 16 4 C 8 4 4 8 4 16 C 4 24 8 28 16 28 C 24 28 28 24 28 16 C 28 8 24 4 16 4 Z"
        fill="none" stroke="url(#grad1)" stroke-width="2.5" opacity="0.3"/>

  <!-- Main Möbius strip with twist -->
  <path d="M 16 6 C 10 6 6 10 6 16 C 6 19 7 21 9 23 L 14 20 C 13 19 12 17.5 12 16 C 12 13 13.5 11 16 11 C 18.5 11 20 13 20 16 C 20 17.5 19 19 18 20 L 23 23 C 25 21 26 19 26 16 C 26 10 22 6 16 6 Z"
        fill="url(#grad1)" opacity="0.8"/>

  <!-- Center twist highlight -->
  <ellipse cx="16" cy="16" rx="3" ry="2" fill="url(#grad1)" opacity="0.9" transform="rotate(20 16 16)"/>

  <!-- Additional depth layer -->
  <path d="M 9 23 C 11 25 13 26 16 26 C 19 26 21 25 23 23"
        fill="none" stroke="url(#grad1)" stroke-width="1.5" stroke-linecap="round" opacity="0.6"/>
</svg>
